#!OML:ASF H:\MichaelJackson\Top Level 1\Subject 1\Session 1\male.ASF
:FULLY-SPECIFIED
:DEGREES
1
root 23.3096 16.7715 -32.1924 9.18408 -0.231701 -3.54513
lowerback -7.48508 -0.934683 4.82862
upperback -0.507962 -1.68749 0.952307
thorax 3.56251 -0.769407 -1.89924
lowerneck -10.5781 -3.08768 -0.91406
upperneck 3.68328 -4.07342 1.20353
head 3.09377 -1.98748 0.310359
rclavicle -3.39487e-015 7.16867e-015
rhumerus -51.4683 32.011 -104.427
rradius 96.6247
rwrist -19.9559
rhand -28.0547 -19.5333
rfingers 7.12502
rthumb -1.43876 -49.5082
lclavicle -3.39487e-015 7.16867e-015
lhumerus -39.6765 -15.2418 96.183
lradius 40.6257
lwrist 14.2093
lhand -8.82791 11.7837
lfingers 7.12502
lthumb 17.1121 41.0501
rfemur -19.4908 3.77859 25.89
rtibia 30.9576
rfoot -17.5434 -9.68823
rtoes 11.3394
lfemur -24.2891 2.111 -18.6139
ltibia 37.4563
lfoot -18.6711 -3.45685
ltoes 29.1503
2
root 23.3119 16.7749 -32.1912 9.23012 -0.285848 -3.55278
lowerback -7.51941 -0.892086 4.84581
upperback -0.521743 -1.63352 0.943556
thorax 3.57032 -0.742317 -1.91316
lowerneck -10.5441 -3.12917 -0.890218
upperneck 3.67523 -4.13281 1.21377
head 3.08476 -2.01632 0.306564
rclavicle 2.70013e-014 1.1163e-014
rhumerus -51.0528 32.2278 -104.473
rradius 97.0346
rwrist -20.7408
rhand -27.4261 -19.6141
rfingers 7.12502
rthumb -0.831601 -49.5922
lclavicle 2.70013e-014 1.1163e-014
lhumerus -39.7058 -15.3221 96.2222
lradius 40.6623
lwrist 14.221
lhand -8.85113 11.8356
lfingers 7.12502
lthumb 17.0897 41.1039
rfemur -19.739 1.12077 26.088
rtibia 31.0721
rfoot -17.1125 -7.60543
rtoes 7.47289
lfemur -24.2946 2.06689 -18.6129
ltibia 37.385
lfoot -18.7153 -3.38584
ltoes 29.0369
3
root 23.3134 16.7738 -32.191 9.28396 -0.337023 -3.57944
lowerback -7.55997 -0.848515 4.8727
upperback -0.538617 -1.57963 0.94175
thorax 3.57838 -0.715203 -1.92538
lowerneck -10.516 -3.16663 -0.880889
upperneck 3.68305 -4.18584 1.23657
head 3.08303 -2.04165 0.309552
rclavicle 2.20604e-015 -6.25551e-015
rhumerus -50.7359 32.6397 -104.545
rradius 97.3123
rwrist -21.7038
rhand -27.0197 -19.4214
rfingers 7.12502
rthumb -0.439162 -49.4007
lclavicle 2.20604e-015 -6.25551e-015
lhumerus -39.7273 -15.4043 96.2661
lradius 40.6698
lwrist 14.1878
lhand -8.87911 11.7478
lfingers 7.12502
lthumb 17.0628 41.0185
rfemur -19.8435 0.968807 26.0944
rtibia 31.0742
rfoot -16.9649 -7.38361
rtoes 6.79765
lfemur -24.345 1.93794 -18.5784
ltibia 37.3869
lfoot -18.7904 -3.23319
ltoes 29.4229
4
root 23.3155 16.7737 -32.1924 9.35476 -0.421242 -3.57543
lowerback -7.59509 -0.811539 4.91437
upperback -0.564212 -1.53505 0.937873
thorax 3.5733 -0.692935 -1.94868
lowerneck -10.4817 -3.15437 -0.875151
upperneck 3.61216 -4.16837 1.21704
head 3.05112 -2.03414 0.304452
rclavicle -7.55537e-015 -5.11871e-015
rhumerus -51.1098 32.8866 -104.958
rradius 98.3402
rwrist -21.0002
rhand -26.9345 -19.6244
rfingers 7.12502
rthumb -0.356824 -49.6038
lclavicle -7.55537e-015 -5.11871e-015
lhumerus -39.6957 -15.4281 96.3177
lradius 40.6003
lwrist 14.2149
lhand -8.89954 11.792
lfingers 7.12502
lthumb 17.0431 41.0643
rfemur -19.935 0.950279 26.0696
rtibia 31.0869
rfoot -17.0149 -7.25316
rtoes 6.81457
lfemur -24.4142 1.90557 -18.595
ltibia 37.385
lfoot -18.7927 -3.13303
ltoes 29.5408
